<svg xmlns="http://www.w3.org/2000/svg" width="135" height="42" viewBox="0 0 135 42">
  <g id="logo-AICP" transform="translate(0 0)">
    <path id="Path_8153" data-name="Path 8153" d="M75.385,36H83.4c.391,0,.559.084.642.5a37.293,37.293,0,0,1,.642,6.815c.028,2.374.112,4.748.056,7.123-.028,2.514-.112,5.056-.307,7.57A16.3,16.3,0,0,1,82.9,63.932a9.437,9.437,0,0,1-6.4,5.056,24.452,24.452,0,0,1-7.123.615,18.462,18.462,0,0,1-4.637-.726,9.289,9.289,0,0,1-6.2-5.475,17.969,17.969,0,0,1-1.2-4.972,95.006,95.006,0,0,1-.307-11.285q0-3.519.168-7.039c.084-1.257.363-2.514.559-3.743a.481.481,0,0,1,.335-.279c2.654-.028,5.307,0,7.961,0a.472.472,0,0,1,.14.056,9.827,9.827,0,0,0-.5,1.257,15.27,15.27,0,0,0-.559,3.156c-.084,4.972-.112,9.916-.084,14.888a11.535,11.535,0,0,0,.95,5.2A4.774,4.774,0,0,0,70.273,63.4a6.12,6.12,0,0,0,3.436-.642,5.377,5.377,0,0,0,2.486-3.519,17.5,17.5,0,0,0,.5-4.5c0-3.994.028-7.961,0-11.955a16.2,16.2,0,0,0-.754-5.419A10.875,10.875,0,0,0,75.385,36Z" transform="translate(-42.481 -27.798)" fill="#5646ff"/>
    <path id="Path_8154" data-name="Path 8154" d="M163.356,36h91.087c.614,0,.614,0,.614.615,0,.866.112.754-.782.754H181.121c-.615,0-.615,0-.615.587V69.3c0,.307-.084.419-.391.419-2.346,0-4.665-.028-7.011,0-.447,0-.419-.251-.419-.531V38.011c0-.615-.028-.642-.642-.642H164.11c-.81,0-.81,0-.81-.81A3.145,3.145,0,0,0,163.356,36Z" transform="translate(-120.784 -27.798)" fill="#5646ff"/>
    <path id="Path_8155" data-name="Path 8155" d="M12.912,52.927V69.156c0,.559,0,.559-.559.559H5.622c-.419,0-.559-.14-.531-.559V36.5c-.028-.391.112-.5.531-.5q3.394.042,6.788,0c.447,0,.531.14.531.559C12.912,42.005,12.912,47.452,12.912,52.927Z" transform="translate(-5.063 -27.798)" fill="#5646ff"/>
    <path id="Path_8158" data-name="Path 8158" d="M163.4,5.758c-.056-.084-.056-.112-.056-.112-.14-1.257-.14-1.257,1.117-1.257h89.8c.866,0,.782-.112.782.81,0,.587,0,.587-.559.587h-90.64A2.4,2.4,0,0,0,163.4,5.758Z" transform="translate(-120.771 -4.35)" fill="#5646ff"/>
    <path id="Path_8160" data-name="Path 8160" d="M163.5,15.3h91.087a1.2,1.2,0,0,1,.559.112,3.039,3.039,0,0,1,0,1.006c0,.056-.307.112-.475.112H164.308c-.95,0-.838.2-.838-.866A.857.857,0,0,1,163.5,15.3Z" transform="translate(-120.898 -12.217)" fill="#5646ff"/>
    <path id="Path_8161" data-name="Path 8161" d="M163.5,26.9V25.728c.168,0,.335-.028.5-.028h90.612c.2,0,.5.056.531.14a4.038,4.038,0,0,1,0,1.006c0,.028-.14.056-.223.084h-90.78A4.531,4.531,0,0,0,163.5,26.9Z" transform="translate(-120.928 -19.712)" fill="#5646ff"/>
    <path id="Path_8163" data-name="Path 8163" d="M86.755,26.968c-.14,0-.279.028-.419.028H77.593a1.635,1.635,0,0,1-.615-.14,5.71,5.71,0,0,0-5.447,0,1.306,1.306,0,0,1-.531.168h-9.05A.862.862,0,0,1,61.7,27c.112-.307.223-.587.307-.866a.443.443,0,0,1,.5-.335H85.666C86.448,25.767,86.7,26.018,86.755,26.968Z" transform="translate(-45.863 -19.779)" fill="#5646ff"/>
    <path id="Path_8164" data-name="Path 8164" d="M89.278,16.429H67.1a1.794,1.794,0,0,1,1.62-1.2q9.343,0,18.687-.028a1.7,1.7,0,0,1,1.508.726A4.415,4.415,0,0,0,89.278,16.429Z" transform="translate(-49.754 -12.145)" fill="#5646ff"/>
    <path id="Path_8165" data-name="Path 8165" d="M80.2,5.53a22,22,0,0,1,14.72,0v.14H80.2Z" transform="translate(-59.488 -4.262)" fill="#5646ff"/>
    <g id="Group_53676" data-name="Group 53676" transform="translate(68.333 12.196)">
      <path id="Path_8156" data-name="Path 8156" d="M440.828,50.3h3.128V67c.056,0,.084.028.14.028.084-.084.14-.2.223-.279l4.106-4.944c.754-.922,1.536-1.816,2.318-2.737a.767.767,0,0,1,.5-.279c1.117-.028,2.207,0,3.324,0a1.1,1.1,0,0,1,.168.056c-.642.67-1.257,1.341-1.871,1.983-1.592,1.7-3.184,3.408-4.8,5.084-.2.223-.112.363,0,.531l4.776,8.38c.922,1.592,1.816,3.184,2.737,4.776.056.112.112.223.2.419-.894,0-1.76-.056-2.57.028a1.6,1.6,0,0,1-1.844-1.089c-1.7-3.436-3.519-6.843-5.307-10.251a1.651,1.651,0,0,0-.112-.223c-.223-.391-.307-.391-.615-.084a3.476,3.476,0,0,1-.531.587,2.562,2.562,0,0,0-.894,2.346c.056,2.709.028,5.419.028,8.128v.531h-2.067c-1.061,0-1.061,0-1.061-1.061V50.859A3.052,3.052,0,0,0,440.828,50.3Z" transform="translate(-389.105 -50.3)" fill="#5646ff"/>
      <path id="Path_8157" data-name="Path 8157" d="M359.6,79.6h2.458c.084,0,.223.168.223.279.056.615.084,1.257.14,1.871.028.223.028.419.056.782.168-.168.307-.251.363-.363a6.419,6.419,0,0,1,5.447-2.989,5.868,5.868,0,0,1,5.279,2.458,6.472,6.472,0,0,1,1.173,2.989,21.719,21.719,0,0,1,.168,2.709c.028,4.329,0,8.659.028,12.989,0,.419-.084.587-.559.587-.642-.028-1.313,0-1.983,0-.615,0-.615,0-.615-.587v-9.19c0-1.369.028-2.709,0-4.078a7.664,7.664,0,0,0-.5-2.737,3.861,3.861,0,0,0-4.693-2.4,4.852,4.852,0,0,0-3.771,5.028v13.3c0,.642,0,.642-.642.642H359.6Z" transform="translate(-330.195 -71.111)" fill="#5646ff"/>
      <path id="Path_8159" data-name="Path 8159" d="M266.254,80.809v2.57c-.112,0-.2.028-.279.028H252.987c-.587,0-.587,0-.587-.615V55.615c0-.615,0-.615.587-.615h2.095c.307,0,.447.084.447.419v5.5c0,1.564-.028,3.128-.028,4.693V70.7c0,2.207.028,4.441.028,6.648,0,.978.028,1.955,0,2.933-.028.419.14.531.531.531h10.2Z" transform="translate(-252.4 -53.687)" fill="#5646ff"/>
      <path id="Path_8162" data-name="Path 8162" d="M324.875,91.3v10.112c0,.419-.112.559-.531.531q-1.047-.042-2.095,0c-.447.028-.587-.112-.559-.559.028-5.754,0-11.48,0-17.234,0-1.006.028-1.983,0-2.961,0-.419.14-.531.531-.5.754.028,1.48.028,2.235,0,.363,0,.447.112.447.447C324.875,84.516,324.875,87.9,324.875,91.3Z" transform="translate(-302.547 -72.198)" fill="#5646ff"/>
      <path id="Path_8166" data-name="Path 8166" d="M322.293,58.909a1.8,1.8,0,0,1-1.9-1.955A1.884,1.884,0,0,1,322.377,55a1.843,1.843,0,0,1,1.955,2.039A1.824,1.824,0,0,1,322.293,58.909Z" transform="translate(-301.614 -53.265)" fill="#5646ff"/>
    </g>
    <path id="Path_8167" data-name="Path 8167" d="M12.849,5.743H5.531C5.112,5.771,5,5.631,5,5.24c.028-1.033-.056-.866.866-.866h6.48c.391,0,.559.084.5.5C12.821,5.128,12.849,5.408,12.849,5.743Z" transform="translate(-5 -4.335)" fill="#5646ff"/>
    <path id="Path_8168" data-name="Path 8168" d="M12.893,25.8v1.145H5.1V25.8Z" transform="translate(-5.072 -19.784)" fill="#5646ff"/>
    <path id="Path_8169" data-name="Path 8169" d="M12.921,16.6H5.715c-.615,0-.615,0-.615-.615v-.559c.2,0,.363-.028.531-.028h6.732c.587,0,.587,0,.587.587A3.944,3.944,0,0,0,12.921,16.6Z" transform="translate(-5.072 -12.289)" fill="#5646ff"/>
  </g>
</svg>
